<svg width="10" height="10" viewBox="0 0 10 10" fill="none" xmlns="http://www.w3.org/2000/svg">
<g clip-path="url(#clip0_1_108)">
<path d="M4.01739 2.34203C4.26747 2.23716 4.37234 1.93868 4.2594 1.69667L3.86412 0.865759C3.75118 0.631895 3.4769 0.526943 3.23489 0.631895C2.54919 0.922309 1.96029 1.30146 1.4924 1.76128C0.919644 2.30169 0.532425 2.92286 0.322682 3.60856C0.112939 4.30241 0 5.24617 0 6.44816V8.92475C0 9.19096 0.21781 9.40877 0.484023 9.40877H3.65437C3.92059 9.40877 4.1384 9.19096 4.1384 8.92475V5.75439C4.1384 5.4881 3.92059 5.27037 3.65437 5.27037H2.13777C2.1539 4.45552 2.34751 3.80217 2.70246 3.31C2.99288 2.91487 3.4285 2.59219 4.01739 2.34203ZM9.71273 2.34203C9.96281 2.23716 10.0676 1.93868 9.95474 1.69667L9.55946 0.873907C9.44652 0.639963 9.17224 0.535091 8.93023 0.639962C8.25259 0.930376 7.67169 1.30953 7.19581 1.76128C6.62297 2.30984 6.22776 2.93101 6.01794 3.61671C5.8082 4.29426 5.70341 5.23818 5.70341 6.44824V8.92483C5.70341 9.19104 5.92122 9.40885 6.18743 9.40885H9.35778C9.62399 9.40885 9.8418 9.19104 9.8418 8.92483V5.75448C9.8418 5.48818 9.62399 5.27045 9.35778 5.27045H7.83311C7.84924 4.4556 8.04293 3.80225 8.3978 3.31008C8.68822 2.91487 9.12384 2.59219 9.71273 2.34203Z" fill="#4A1F96" fill-opacity="0.5"/>
</g>
<defs>
<clipPath id="clip0_1_108">
<rect width="10" height="10" fill="white"/>
</clipPath>
</defs>
</svg>
