<svg width="40" height="40" viewBox="0 0 40 40" fill="none" xmlns="http://www.w3.org/2000/svg">
<g clip-path="url(#clip0_1_79)">
<path d="M15.8333 10.8333V15.8333H10.8333V10.8333H15.8333ZM18.3333 8.33334H8.33333V18.3333H18.3333V8.33334ZM15.8333 24.1667V29.1667H10.8333V24.1667H15.8333ZM18.3333 21.6667H8.33333V31.6667H18.3333V21.6667ZM29.1667 10.8333V15.8333H24.1667V10.8333H29.1667ZM31.6667 8.33334H21.6667V18.3333H31.6667V8.33334ZM21.6667 21.6667H24.1667V24.1667H21.6667V21.6667ZM24.1667 24.1667H26.6667V26.6667H24.1667V24.1667ZM26.6667 21.6667H29.1667V24.1667H26.6667V21.6667ZM21.6667 26.6667H24.1667V29.1667H21.6667V26.6667ZM24.1667 29.1667H26.6667V31.6667H24.1667V29.1667ZM26.6667 26.6667H29.1667V29.1667H26.6667V26.6667ZM29.1667 24.1667H31.6667V26.6667H29.1667V24.1667ZM29.1667 29.1667H31.6667V31.6667H29.1667V29.1667ZM36.6667 11.6667H33.3333V6.66668H28.3333V3.33334H36.6667V11.6667ZM36.6667 36.6667V28.3333H33.3333V33.3333H28.3333V36.6667H36.6667ZM3.33333 36.6667H11.6667V33.3333H6.66666V28.3333H3.33333V36.6667ZM3.33333 3.33334V11.6667H6.66666V6.66668H11.6667V3.33334H3.33333Z" fill="white"/>
</g>
<defs>
<clipPath id="clip0_1_79">
<rect width="40" height="40" fill="white"/>
</clipPath>
</defs>
</svg>
