<svg width="10" height="10" viewBox="0 0 10 10" fill="none" xmlns="http://www.w3.org/2000/svg">
<path d="M5.98261 7.65797C5.73253 7.76285 5.62766 8.06133 5.7406 8.30334L6.13588 9.13424C6.24882 9.36811 6.5231 9.47306 6.76511 9.36811C7.45081 9.07769 8.03971 8.69854 8.5076 8.23872C9.08036 7.69831 9.46757 7.07715 9.67732 6.39145C9.88706 5.6976 10 4.75383 10 3.55184V1.07526C10 0.809044 9.78219 0.591233 9.51598 0.591233H6.34563C6.07941 0.591233 5.8616 0.809044 5.8616 1.07526V4.24561C5.8616 4.5119 6.07941 4.72963 6.34563 4.72963H7.86223C7.8461 5.54449 7.65249 6.19784 7.29754 6.69001C7.00712 7.08513 6.5715 7.40781 5.98261 7.65797ZM0.287269 7.65797C0.0371895 7.76285 -0.0676012 8.06133 0.0452566 8.30334L0.440542 9.1261C0.553481 9.36004 0.827762 9.46491 1.06977 9.36004C1.74741 9.06963 2.32831 8.69048 2.80419 8.23872C3.37703 7.69016 3.77224 7.069 3.98206 6.3833C4.1918 5.70575 4.29659 4.76182 4.29659 3.55176V1.07518C4.29659 0.808964 4.07878 0.591153 3.81257 0.591153H0.642219C0.376006 0.591153 0.158195 0.808964 0.158195 1.07518V4.24553C0.158195 4.51182 0.376006 4.72955 0.642219 4.72955H2.16689C2.15076 5.54441 1.95707 6.19776 1.6022 6.68993C1.31178 7.08513 0.876163 7.40781 0.287269 7.65797Z" fill="#4A1F96" fill-opacity="0.5"/>
</svg>
